<?xml version="1.0" standalone="no"?><!DOCTYPE svg PUBLIC "-//W3C//DTD SVG 1.1//EN" "http://www.w3.org/Graphics/SVG/1.1/DTD/svg11.dtd"><svg t="1576250222310" class="icon" viewBox="0 0 1024 1024" version="1.1" xmlns="http://www.w3.org/2000/svg" p-id="3935" width="40" height="40" xmlns:xlink="http://www.w3.org/1999/xlink"><defs><style type="text/css"></style></defs><path d="M902.123854 0h-21.336195v73.142857a73.142857 73.142857 0 0 1-73.142857 73.142857H222.490499a73.142857 73.142857 0 0 1-73.142858-73.142857V0h-27.471495A73.142857 73.142857 0 0 0 48.733289 73.142857v877.714286a73.142857 73.142857 0 0 0 73.142857 73.142857h780.190476a73.142857 73.142857 0 0 0 73.142857-73.142857V73.142857A73.142857 73.142857 0 0 0 902.123854 0z m-24.380952 842.4592a36.628661 36.628661 0 0 1-36.628661 36.62866H182.885759a36.628661 36.628661 0 0 1-36.628661-36.62866v-2.518221a36.628661 36.628661 0 0 1 36.628661-36.571428h658.285714a36.628661 36.628661 0 0 1 36.628661 36.571428z m-36.628661-174.970535H182.885759a36.628661 36.628661 0 0 1 0-73.142857h658.285714a36.628661 36.628661 0 1 1 0 73.142857z m0-210.282852H182.885759a36.628661 36.628661 0 0 1 0-73.142857h658.285714a36.628661 36.628661 0 1 1 0 73.142857z" p-id="3936" fill="#0096ff"></path><path d="M222.501945 0m1.716968 0l581.708921 0q1.716968 0 1.716968 1.716968l0 69.708921q0 1.716968-1.716968 1.716968l-581.708921 0q-1.716968 0-1.716968-1.716968l0-69.708921q0-1.716968 1.716968-1.716968Z" p-id="3937" fill="#0096ff"></path></svg>